<svg width="24" height="24" viewBox="0 0 24 24" fill="none" xmlns="http://www.w3.org/2000/svg">
<path d="M12 3.5C17.3292 3.5 21.4999 7.13035 21.5 11.4385C21.5 15.6121 17.5859 19.1502 12.4961 19.3672L12 19.377H11.999C11.051 19.379 10.1069 19.2607 9.19141 19.0244L9.0127 18.9785L8.84668 19.0596C8.18896 19.3811 6.66057 20.0095 4.08594 20.4473C4.49155 19.4449 4.84505 18.1956 4.95898 17.0332L4.98242 16.793L4.80859 16.625C3.36155 15.2237 2.5 13.4074 2.5 11.4385C2.50012 7.13035 6.67079 3.5 12 3.5ZM7 9.7334C6.59876 9.7334 6.20931 9.86765 5.89746 10.1143L5.76855 10.2266C5.43874 10.5448 5.25005 10.9804 5.25 11.4385C5.25 11.8396 5.39493 12.2234 5.65234 12.5264L5.76855 12.6514C6.09802 12.9691 6.5416 13.1445 7 13.1445C7.40111 13.1445 7.79074 13.0101 8.10254 12.7637L8.23145 12.6514C8.56149 12.333 8.75 11.8967 8.75 11.4385C8.74996 11.0373 8.60515 10.6535 8.34766 10.3506L8.23145 10.2266C7.90198 9.90882 7.4584 9.7334 7 9.7334ZM12 9.7334C11.5988 9.7334 11.2093 9.86765 10.8975 10.1143L10.7686 10.2266C10.4387 10.5448 10.2501 10.9804 10.25 11.4385C10.25 11.8396 10.3949 12.2234 10.6523 12.5264L10.7686 12.6514C11.098 12.9691 11.5416 13.1445 12 13.1445C12.4011 13.1445 12.7907 13.0101 13.1025 12.7637L13.2314 12.6514C13.5615 12.333 13.75 11.8967 13.75 11.4385C13.75 11.0373 13.6051 10.6535 13.3477 10.3506L13.2314 10.2266C12.902 9.90882 12.4584 9.7334 12 9.7334ZM17 9.7334C16.5988 9.7334 16.2093 9.86765 15.8975 10.1143L15.7686 10.2266C15.4387 10.5448 15.2501 10.9804 15.25 11.4385C15.25 11.8396 15.3949 12.2234 15.6523 12.5264L15.7686 12.6514C16.098 12.9691 16.5416 13.1445 17 13.1445C17.4011 13.1445 17.7907 13.0101 18.1025 12.7637L18.2314 12.6514C18.5615 12.333 18.75 11.8967 18.75 11.4385C18.75 11.0373 18.6051 10.6535 18.3477 10.3506L18.2314 10.2266C17.902 9.90882 17.4584 9.7334 17 9.7334Z" stroke="black"/>
</svg>
