<svg width="24" height="24" viewBox="0 0 24 24" fill="none" xmlns="http://www.w3.org/2000/svg">
<path d="M12 3.5C12.3534 3.5 12.6617 3.58701 12.9375 3.75879L13.0537 3.83691L13.0566 3.83887L19.8066 8.72461L19.8115 8.72852C19.9731 8.84295 20.1077 8.9795 20.2168 9.14062L20.3174 9.31055C20.4096 9.48816 20.4669 9.67107 20.4893 9.8623L20.5 10.0557V19.8281C20.5 20.2284 20.3753 20.5716 20.1123 20.875L19.9912 21.0029C19.6879 21.2956 19.3405 21.4567 18.9307 21.4922L18.751 21.5H15.375C15.2265 21.5 15.1109 21.4664 15.0137 21.4023L14.9219 21.3281C14.8351 21.2441 14.782 21.1514 14.7607 21.0361L14.75 20.9131V15.4854C14.7499 15.1009 14.6267 14.7553 14.3838 14.4707L14.2725 14.3525C13.9968 14.0875 13.6613 13.9404 13.2881 13.9072L13.126 13.9004H10.875C10.4356 13.9004 10.0414 14.0487 9.72656 14.3535C9.45118 14.6202 9.29357 14.9504 9.25781 15.3223L9.25 15.4844V20.9141C9.25 21.0458 9.21864 21.1502 9.1543 21.2412L9.0791 21.3291C8.99176 21.4134 8.89115 21.4675 8.76367 21.4893L8.62598 21.5H5.25C4.82061 21.5 4.4574 21.3749 4.1416 21.1201L4.00879 21.0029C3.6635 20.6697 3.50062 20.2869 3.5 19.8281V10.0576C3.5 9.86049 3.5337 9.67191 3.60254 9.49023L3.68359 9.31055C3.7762 9.13222 3.89337 8.9793 4.03711 8.84961L4.18945 8.72754L4.19336 8.72461L10.9434 3.83887L10.9463 3.83691C11.2509 3.61297 11.5963 3.5 12 3.5Z" stroke="black"/>
</svg>
