<svg width="24" height="24" viewBox="0 0 24 24" fill="none" xmlns="http://www.w3.org/2000/svg">
<mask id="path-1-inside-1_21_1235" fill="white">
<path d="M12.7121 21.4902L12.702 21.492L12.6369 21.5241L12.6186 21.5278L12.6058 21.5241L12.5407 21.492C12.5309 21.4889 12.5236 21.4905 12.5187 21.4966L12.515 21.5058L12.4994 21.8982L12.504 21.9165L12.5132 21.9284L12.6085 21.9963L12.6223 21.9999L12.6333 21.9963L12.7286 21.9284L12.7396 21.9137L12.7433 21.8982L12.7277 21.5067C12.7253 21.4969 12.7201 21.4914 12.7121 21.4902ZM12.9551 21.3866L12.9432 21.3884L12.7735 21.4737L12.7644 21.4828L12.7616 21.4929L12.7781 21.8872L12.7827 21.8982L12.7901 21.9046L12.9743 21.9898C12.986 21.9929 12.9948 21.9905 13.0009 21.9825L13.0046 21.9697L12.9734 21.4067C12.9704 21.3957 12.9643 21.389 12.9551 21.3866ZM12.2995 21.3884C12.2955 21.3859 12.2907 21.3852 12.2861 21.3862C12.2814 21.3872 12.2774 21.39 12.2748 21.3939L12.2693 21.4067L12.2381 21.9697C12.2387 21.9807 12.2439 21.988 12.2537 21.9917L12.2675 21.9898L12.4517 21.9046L12.4609 21.8972L12.4646 21.8872L12.4802 21.4929L12.4774 21.4819L12.4682 21.4727L12.2995 21.3884Z"/>
</mask>
<path d="M12.7121 21.4902L12.8642 20.5018L12.6983 20.4763L12.5332 20.5063L12.7121 21.4902ZM12.702 21.492L12.5231 20.5081L12.3854 20.5332L12.2599 20.5951L12.702 21.492ZM12.6369 21.5241L12.833 22.5047L12.9615 22.479L13.0791 22.421L12.6369 21.5241ZM12.6186 21.5278L12.3439 22.4893L12.577 22.5559L12.8147 22.5083L12.6186 21.5278ZM12.6058 21.5241L12.1636 22.421L12.2444 22.4609L12.3311 22.4856L12.6058 21.5241ZM12.5407 21.492L12.9828 20.5951L12.9131 20.5607L12.8389 20.5375L12.5407 21.492ZM12.5187 21.4966L11.7378 20.8719L11.6452 20.9876L11.5902 21.1252L12.5187 21.4966ZM12.515 21.5058L11.5865 21.1344L11.5226 21.2941L11.5158 21.4661L12.515 21.5058ZM12.4994 21.8982L11.5002 21.8585L11.4945 22.0017L11.5293 22.1407L12.4994 21.8982ZM12.504 21.9165L11.5339 22.159L11.5844 22.3611L11.7114 22.5262L12.504 21.9165ZM12.5132 21.9284L11.7205 22.5381L11.8117 22.6566L11.9334 22.7432L12.5132 21.9284ZM12.6085 21.9963L12.0288 22.8111L12.1761 22.9159L12.3509 22.9625L12.6085 21.9963ZM12.6223 21.9999L12.3646 22.9662L12.6542 23.0434L12.9385 22.9486L12.6223 21.9999ZM12.6333 21.9963L12.9495 22.945L13.0913 22.8977L13.213 22.8111L12.6333 21.9963ZM12.7286 21.9284L13.3084 22.7432L13.4352 22.653L13.5286 22.5284L12.7286 21.9284ZM12.7396 21.9137L13.5396 22.5137L13.6651 22.3464L13.713 22.1428L12.7396 21.9137ZM12.7433 21.8982L13.7167 22.1272L13.7479 21.9945L13.7425 21.8584L12.7433 21.8982ZM12.7277 21.5067L13.7269 21.4669L13.7228 21.364L13.6978 21.2641L12.7277 21.5067ZM12.9551 21.3866L13.2127 20.4203L13.0102 20.3663L12.8031 20.3982L12.9551 21.3866ZM12.9432 21.3884L12.7912 20.4L12.6351 20.424L12.494 20.4949L12.9432 21.3884ZM12.7735 21.4737L12.3244 20.5802L12.1804 20.6526L12.0664 20.7666L12.7735 21.4737ZM12.7644 21.4828L12.0573 20.7757L11.8695 20.9635L11.7996 21.2198L12.7644 21.4828ZM12.7616 21.4929L11.7969 21.2298L11.756 21.3796L11.7625 21.5347L12.7616 21.4929ZM12.7781 21.8872L11.779 21.929L11.7865 22.1072L11.8551 22.2718L12.7781 21.8872ZM12.7827 21.8982L11.8597 22.2828L11.9491 22.4976L12.1242 22.6508L12.7827 21.8982ZM12.7901 21.9046L12.1316 22.6572L12.2397 22.7518L12.3701 22.8121L12.7901 21.9046ZM12.9743 21.9898L12.5544 22.8974L12.6345 22.9345L12.7198 22.9569L12.9743 21.9898ZM13.0009 21.9825L13.7936 22.5922L13.91 22.4408L13.9625 22.2572L13.0009 21.9825ZM13.0046 21.9697L13.9661 22.2444L14.0124 22.0825L14.0031 21.9144L13.0046 21.9697ZM12.9734 21.4067L13.9719 21.3514L13.9659 21.2434L13.9369 21.1391L12.9734 21.4067ZM12.2995 21.3884L11.7813 22.2436L11.816 22.2647L11.8523 22.2828L12.2995 21.3884ZM12.2748 21.3939L11.4431 20.8387L11.3919 20.9153L11.3557 20.9999L12.2748 21.3939ZM12.2693 21.4067L11.3502 21.0128L11.2806 21.1751L11.2708 21.3514L12.2693 21.4067ZM12.2381 21.9697L11.2396 21.9144L11.2366 21.9698L11.2397 22.0251L12.2381 21.9697ZM12.2537 21.9917L11.9026 22.928L12.1374 23.0161L12.3859 22.9829L12.2537 21.9917ZM12.2675 21.9898L12.3997 22.9811L12.5499 22.961L12.6874 22.8974L12.2675 21.9898ZM12.4517 21.9046L12.8717 22.8121L12.9817 22.7612L13.0764 22.6855L12.4517 21.9046ZM12.4609 21.8972L13.0856 22.6781L13.3048 22.5028L13.4007 22.239L12.4609 21.8972ZM12.4646 21.8872L13.4044 22.2289L13.4576 22.0824L13.4638 21.9267L12.4646 21.8872ZM12.4802 21.4929L13.4794 21.5324L13.485 21.3893L13.4503 21.2503L12.4802 21.4929ZM12.4774 21.4819L13.4475 21.2393L13.3804 20.9707L13.1845 20.7748L12.4774 21.4819ZM12.4682 21.4727L13.1753 20.7656L13.0606 20.6509L12.9155 20.5783L12.4682 21.4727ZM12.7121 21.4902L12.5332 20.5063L12.5231 20.5081L12.702 21.492L12.881 22.4759L12.8911 22.474L12.7121 21.4902ZM12.702 21.492L12.2599 20.5951L12.1948 20.6271L12.6369 21.5241L13.0791 22.421L13.1442 22.3889L12.702 21.492ZM12.6369 21.5241L12.4408 20.5435L12.4225 20.5472L12.6186 21.5278L12.8147 22.5083L12.833 22.5047L12.6369 21.5241ZM12.6186 21.5278L12.8933 20.5662L12.8805 20.5626L12.6058 21.5241L12.3311 22.4856L12.3439 22.4893L12.6186 21.5278ZM12.6058 21.5241L13.0479 20.6271L12.9828 20.5951L12.5407 21.492L12.0985 22.3889L12.1636 22.421L12.6058 21.5241ZM12.5407 21.492L12.8389 20.5375C12.7286 20.503 12.5445 20.4659 12.3239 20.5119C12.0818 20.5623 11.8785 20.696 11.7378 20.8719L12.5187 21.4966L13.2995 22.1213C13.1637 22.291 12.9665 22.4209 12.7317 22.4698C12.5185 22.5143 12.343 22.4779 12.2424 22.4465L12.5407 21.492ZM12.5187 21.4966L11.5902 21.1252L11.5865 21.1344L12.515 21.5058L13.4435 21.8771L13.4472 21.8679L12.5187 21.4966ZM12.515 21.5058L11.5158 21.4661L11.5002 21.8585L12.4994 21.8982L13.4986 21.9378L13.5142 21.5454L12.515 21.5058ZM12.4994 21.8982L11.5293 22.1407L11.5339 22.159L12.504 21.9165L13.4741 21.674L13.4696 21.6556L12.4994 21.8982ZM12.504 21.9165L11.7114 22.5262L11.7205 22.5381L12.5132 21.9284L13.3058 21.3187L13.2966 21.3068L12.504 21.9165ZM12.5132 21.9284L11.9334 22.7432L12.0288 22.8111L12.6085 21.9963L13.1883 21.1815L13.0929 21.1136L12.5132 21.9284ZM12.6085 21.9963L12.3509 22.9625L12.3646 22.9662L12.6223 21.9999L12.8799 21.0337L12.8662 21.03L12.6085 21.9963ZM12.6223 21.9999L12.9385 22.9486L12.9495 22.945L12.6333 21.9963L12.3171 21.0476L12.3061 21.0512L12.6223 21.9999ZM12.6333 21.9963L13.213 22.8111L13.3084 22.7432L12.7286 21.9284L12.1489 21.1136L12.0535 21.1815L12.6333 21.9963ZM12.7286 21.9284L13.5286 22.5284L13.5396 22.5137L12.7396 21.9137L11.9396 21.3138L11.9286 21.3284L12.7286 21.9284ZM12.7396 21.9137L13.713 22.1428L13.7167 22.1272L12.7433 21.8982L11.7699 21.6691L11.7662 21.6847L12.7396 21.9137ZM12.7433 21.8982L13.7425 21.8584L13.7269 21.4669L12.7277 21.5067L11.7285 21.5465L11.7441 21.9379L12.7433 21.8982ZM12.7277 21.5067L13.6978 21.2641C13.6684 21.1462 13.6021 20.9707 13.449 20.8086C13.2837 20.6336 13.0733 20.534 12.8642 20.5018L12.7121 21.4902L12.5601 22.4785C12.3589 22.4476 12.155 22.3513 11.995 22.1818C11.847 22.0252 11.7846 21.8574 11.7576 21.7492L12.7277 21.5067ZM12.9551 21.3866L12.8031 20.3982L12.7912 20.4L12.9432 21.3884L13.0951 22.3768L13.1071 22.3749L12.9551 21.3866ZM12.9432 21.3884L12.494 20.4949L12.3244 20.5802L12.7735 21.4737L13.2227 22.3671L13.3923 22.2819L12.9432 21.3884ZM12.7735 21.4737L12.0664 20.7666L12.0573 20.7757L12.7644 21.4828L13.4715 22.1899L13.4807 22.1808L12.7735 21.4737ZM12.7644 21.4828L11.7996 21.2198L11.7969 21.2298L12.7616 21.4929L13.7264 21.756L13.7292 21.7459L12.7644 21.4828ZM12.7616 21.4929L11.7625 21.5347L11.779 21.929L12.7781 21.8872L13.7773 21.8453L13.7608 21.4511L12.7616 21.4929ZM12.7781 21.8872L11.8551 22.2718L11.8597 22.2828L12.7827 21.8982L13.7058 21.5135L13.7012 21.5025L12.7781 21.8872ZM12.7827 21.8982L12.1242 22.6508L12.1316 22.6572L12.7901 21.9046L13.4485 21.152L13.4412 21.1456L12.7827 21.8982ZM12.7901 21.9046L12.3701 22.8121L12.5544 22.8974L12.9743 21.9898L13.3943 21.0823L13.21 20.997L12.7901 21.9046ZM12.9743 21.9898L12.7198 22.9569C12.8454 22.99 13.0366 23.0147 13.2556 22.9543C13.4886 22.89 13.6707 22.7519 13.7936 22.5922L13.0009 21.9825L12.2083 21.3728C12.325 21.2211 12.4997 21.0881 12.7238 21.0263C12.934 20.9683 13.1149 20.9928 13.2288 21.0228L12.9743 21.9898ZM13.0009 21.9825L13.9625 22.2572L13.9661 22.2444L13.0046 21.9697L12.0431 21.695L12.0394 21.7078L13.0009 21.9825ZM13.0046 21.9697L14.0031 21.9144L13.9719 21.3514L12.9734 21.4067L11.975 21.462L12.0061 22.025L13.0046 21.9697ZM12.9734 21.4067L13.9369 21.1391C13.8617 20.8682 13.639 20.534 13.2127 20.4203L12.9551 21.3866L12.6974 22.3528C12.5251 22.3068 12.3587 22.2114 12.2266 22.0661C12.101 21.928 12.0397 21.7818 12.0099 21.6744L12.9734 21.4067ZM12.2995 21.3884L12.8178 20.5332C12.5933 20.3971 12.3251 20.3531 12.0691 20.41L12.2861 21.3862L12.503 22.3624C12.2562 22.4172 11.9977 22.3748 11.7813 22.2436L12.2995 21.3884ZM12.2861 21.3862L12.0691 20.41C11.8131 20.4669 11.5888 20.6204 11.4431 20.8387L12.2748 21.3939L13.1065 21.9491C12.966 22.1595 12.7498 22.3075 12.503 22.3624L12.2861 21.3862ZM12.2748 21.3939L11.3557 20.9999L11.3502 21.0128L12.2693 21.4067L13.1884 21.8007L13.1939 21.7878L12.2748 21.3939ZM12.2693 21.4067L11.2708 21.3514L11.2396 21.9144L12.2381 21.9697L13.2366 22.025L13.2678 21.462L12.2693 21.4067ZM12.2381 21.9697L11.2397 22.0251C11.248 22.176 11.2928 22.3728 11.4264 22.5614C11.5625 22.7536 11.7415 22.8676 11.9026 22.928L12.2537 21.9917L12.6048 21.0554C12.7561 21.1121 12.9276 21.2206 13.0585 21.4054C13.1869 21.5867 13.2288 21.7744 13.2366 21.9142L12.2381 21.9697ZM12.2537 21.9917L12.3859 22.9829L12.3997 22.9811L12.2675 21.9898L12.1352 20.9986L12.1215 21.0005L12.2537 21.9917ZM12.2675 21.9898L12.6874 22.8974L12.8717 22.8121L12.4517 21.9046L12.0318 20.997L11.8475 21.0823L12.2675 21.9898ZM12.4517 21.9046L13.0764 22.6855L13.0856 22.6781L12.4609 21.8972L11.8362 21.1163L11.8271 21.1237L12.4517 21.9046ZM12.4609 21.8972L13.4007 22.239L13.4044 22.2289L12.4646 21.8872L11.5248 21.5454L11.5211 21.5555L12.4609 21.8972ZM12.4646 21.8872L13.4638 21.9267L13.4794 21.5324L12.4802 21.4929L11.4809 21.4534L11.4654 21.8477L12.4646 21.8872ZM12.4802 21.4929L13.4503 21.2503L13.4475 21.2393L12.4774 21.4819L11.5073 21.7245L11.51 21.7355L12.4802 21.4929ZM12.4774 21.4819L13.1845 20.7748L13.1753 20.7656L12.4682 21.4727L11.7611 22.1799L11.7703 22.189L12.4774 21.4819ZM12.4682 21.4727L12.9155 20.5783L12.7468 20.494L12.2995 21.3884L11.8523 22.2828L12.021 22.3672L12.4682 21.4727Z" fill="black" mask="url(#path-1-inside-1_21_1235)"/>
<path d="M12.168 2.5C16.9554 2.5 20.8367 6.3806 20.8369 11.168V11.1689C20.8376 12.3465 20.5978 13.51 20.1348 14.5889L19.9229 15.0459C19.3212 16.2494 18.4468 17.2966 17.3701 18.1035L16.1699 19.0029H19.5029C19.5858 19.0029 19.6664 19.0279 19.7344 19.0732L19.7979 19.125C19.876 19.2032 19.9199 19.3094 19.9199 19.4199C19.9199 19.5029 19.895 19.5833 19.8496 19.6514L19.7979 19.7148C19.7197 19.793 19.6134 19.8369 19.5029 19.8369H12.168C7.3806 19.8367 3.5 15.9554 3.5 11.168C3.50025 6.38075 7.38075 2.50025 12.168 2.5ZM12.168 12.502C11.5493 12.5021 10.9561 12.7481 10.5186 13.1855C10.0809 13.6232 9.83496 14.217 9.83496 14.8359C9.835 15.4548 10.0809 16.0487 10.5186 16.4863C10.9561 16.9237 11.5494 17.1698 12.168 17.1699C12.7868 17.1699 13.3807 16.9238 13.8184 16.4863C14.256 16.0487 14.5019 15.4548 14.502 14.8359C14.502 14.217 14.256 13.6232 13.8184 13.1855C13.3807 12.748 12.7868 12.502 12.168 12.502ZM8.50098 8.83496C7.95953 8.83498 7.43768 9.02316 7.02246 9.36328L6.85059 9.51855C6.41323 9.95607 6.16711 10.5493 6.16699 11.168C6.16699 11.7096 6.35592 12.2322 6.69629 12.6475L6.85059 12.8184C7.28822 13.256 7.88207 13.5019 8.50098 13.502C9.11991 13.502 9.71372 13.256 10.1514 12.8184C10.5889 12.3807 10.835 11.7868 10.835 11.168C10.8348 10.5493 10.5888 9.95608 10.1514 9.51855C9.71372 9.0809 9.11991 8.83496 8.50098 8.83496ZM15.8359 8.83496C15.217 8.83496 14.6232 9.0809 14.1855 9.51855C13.7481 9.95608 13.5021 10.5493 13.502 11.168C13.502 11.7868 13.748 12.3807 14.1855 12.8184C14.6232 13.256 15.217 13.502 15.8359 13.502C16.4548 13.5019 17.0487 13.256 17.4863 12.8184C17.9238 12.3807 18.1699 11.7868 18.1699 11.168C18.1698 10.5494 17.9237 9.95607 17.4863 9.51855C17.0487 9.08094 16.4548 8.835 15.8359 8.83496ZM12.168 5.16699C11.6265 5.1671 11.1046 5.35603 10.6895 5.69629L10.5186 5.85059C10.0809 6.28822 9.83498 6.88207 9.83496 7.50098C9.83496 8.11991 10.0809 8.71372 10.5186 9.15137C10.9561 9.58877 11.5493 9.83484 12.168 9.83496C12.7868 9.83496 13.3807 9.5889 13.8184 9.15137C14.256 8.71372 14.502 8.11991 14.502 7.50098C14.5019 6.95955 14.3137 6.43767 13.9736 6.02246L13.8184 5.85059C13.3807 5.4131 12.7868 5.16699 12.168 5.16699Z" stroke="black"/>
</svg>
