<svg width="24" height="24" viewBox="0 0 24 24" fill="none" xmlns="http://www.w3.org/2000/svg">
<g clip-path="url(#clip0_21_1233)">
<g filter="url(#filter0_d_21_1233)">
<path d="M16.4746 3.5C16.4768 3.5003 16.4795 3.50056 16.4824 3.50098L16.5508 3.50977L16.5703 3.51172H16.5898C16.9566 3.51781 17.3232 3.55309 17.6846 3.61621V3.61523C18.1308 3.69628 18.5387 3.84675 18.9043 4.08496V4.08594C19.5515 4.51148 19.999 5.05951 20.2383 5.75879L20.3281 6.06836V6.06934C20.4481 6.55835 20.4931 7.0676 20.4932 7.59375V8.23438L20.4971 8.23242C20.4979 9.44298 20.499 10.6535 20.499 11.8643C20.499 13.288 20.4986 14.7125 20.5 16.1367L20.4961 16.5098C20.4904 16.7562 20.4774 16.9974 20.4521 17.2344L20.4043 17.5859C20.3627 17.8276 20.3127 18.0509 20.2412 18.2578L20.1621 18.459L20.1611 18.4609C19.9347 18.9755 19.5809 19.4221 19.1348 19.7598L18.9385 19.8984L18.9355 19.9004C18.5437 20.1582 18.109 20.3134 17.6309 20.3965L17.4238 20.4277C17.0518 20.475 16.6801 20.4993 16.3086 20.5H8.03613C7.72576 20.5 7.426 20.4964 7.13086 20.4785L6.83789 20.4561L6.83301 20.4551L6.60059 20.4316C6.44953 20.4136 6.30555 20.3906 6.16797 20.3594L5.96582 20.3057L5.96191 20.3047L5.78027 20.2451C4.94755 19.952 4.33309 19.4233 3.93066 18.6455L3.84766 18.4746H3.84668C3.6827 18.1173 3.59971 17.7292 3.55273 17.3057L3.5166 16.8701L3.5 16.5674V7.43359C3.50073 7.4273 3.50211 7.41828 3.50293 7.40918C3.50406 7.39653 3.50449 7.37981 3.50488 7.36035L3.50586 7.36133C3.50984 7.22177 3.5167 7.08299 3.52832 6.94531L3.57617 6.53613V6.5332C3.61361 6.27321 3.66091 6.03635 3.73242 5.81738L3.8125 5.60352L3.81445 5.59961C4.1596 4.78468 4.72756 4.20946 5.52246 3.85449L5.68457 3.78711L5.68652 3.78613C6.13471 3.60694 6.62329 3.55107 7.17383 3.51953L7.17285 3.51855C7.28435 3.51372 7.39604 3.50825 7.50781 3.5H16.4746ZM16.6748 6.28027L16.6631 6.06641L16.6338 5.90234C16.5899 5.73985 16.503 5.5857 16.3652 5.46484C16.2018 5.32145 15.9994 5.2545 15.7939 5.25391L15.7148 5.25684C15.6126 5.26409 15.5102 5.27858 15.415 5.29492L15.1562 5.34473H15.1553C14.9024 5.39469 14.6504 5.44565 14.3994 5.49609L13.6465 5.64648H13.6436L11.9414 5.99219L10.293 6.32422L10.2881 6.3252L9.69336 6.4541C9.3888 6.52859 9.10435 6.72082 8.9668 7.05469L8.91699 7.20703L8.91406 7.2168C8.8998 7.28009 8.88922 7.34401 8.88184 7.4082L8.87012 7.60156V14.3604C8.86843 14.3863 8.86383 14.4019 8.86133 14.4102C8.85385 14.4137 8.83862 14.4214 8.81348 14.4268L8.1748 14.5566L8.17383 14.5576C7.89073 14.6159 7.56992 14.685 7.25195 14.8164L7.43652 15.2637L7.42578 15.2383L7.25098 14.8164L7.24707 14.8174C6.3821 15.1841 5.99373 15.9934 6.06543 16.7676L6.08594 16.9219V16.9229C6.25207 17.878 7.07001 18.5263 8.03223 18.4922L8.0332 18.4932V18.4922L8.03516 18.4932L8.03418 18.4922C8.3488 18.482 8.66064 18.4327 8.96289 18.3447L8.96387 18.3457C9.51446 18.187 9.9616 17.8627 10.2471 17.3633L10.3594 17.1377L10.3604 17.1367C10.5229 16.7576 10.5614 16.3713 10.5615 16.0205C10.5629 15.0447 10.5625 14.0683 10.5625 13.0928L10.5645 10.167V10.166L13.2656 9.62109H13.2676L14.9736 9.2793H14.9766C14.9777 9.27906 14.9793 9.27856 14.9805 9.27832V13.1602L14.9775 13.1719L14.9766 13.1777L14.9707 13.1797L14.1338 13.3584C13.9252 13.4008 13.6998 13.457 13.4756 13.543L13.2568 13.6377C12.9269 13.795 12.6499 14.043 12.458 14.3516L12.3809 14.4873C12.2139 14.8125 12.145 15.1783 12.1797 15.54L12.2002 15.6953C12.2709 16.0951 12.4679 16.4604 12.7598 16.7383L12.8916 16.8516C13.2534 17.1376 13.7067 17.2813 14.167 17.2568L14.168 17.2578C14.4794 17.2458 14.7883 17.1953 15.0879 17.1094L15.0889 17.1104C15.6874 16.9391 16.1574 16.5709 16.4404 15.9932L16.4395 15.9922C16.6252 15.6156 16.6758 15.2249 16.6758 14.8682V10.5039L16.6748 10.5V6.28027Z" stroke="black" shape-rendering="crispEdges"/>
</g>
</g>
<defs>
<filter id="filter0_d_21_1233" x="-1" y="3" width="26" height="26" filterUnits="userSpaceOnUse" color-interpolation-filters="sRGB">
<feFlood flood-opacity="0" result="BackgroundImageFix"/>
<feColorMatrix in="SourceAlpha" type="matrix" values="0 0 0 0 0 0 0 0 0 0 0 0 0 0 0 0 0 0 127 0" result="hardAlpha"/>
<feOffset dy="4"/>
<feGaussianBlur stdDeviation="2"/>
<feComposite in2="hardAlpha" operator="out"/>
<feColorMatrix type="matrix" values="0 0 0 0 0 0 0 0 0 0 0 0 0 0 0 0 0 0 0.25 0"/>
<feBlend mode="normal" in2="BackgroundImageFix" result="effect1_dropShadow_21_1233"/>
<feBlend mode="normal" in="SourceGraphic" in2="effect1_dropShadow_21_1233" result="shape"/>
</filter>
<clipPath id="clip0_21_1233">
<rect width="24" height="24" fill="white"/>
</clipPath>
</defs>
</svg>
