<svg width="24" height="24" viewBox="0 0 24 24" fill="none" xmlns="http://www.w3.org/2000/svg">
<path d="M19 3.5C19.4162 3.5 19.7605 3.64234 20.0596 3.94141C20.3212 4.20299 20.4622 4.49885 20.4932 4.84668L20.5 4.99902V19C20.5 19.4163 20.3579 19.7606 20.0596 20.0596C19.7988 20.3208 19.5025 20.4622 19.1533 20.4932L19.001 20.5H5C4.63563 20.5 4.32692 20.391 4.05566 20.1641L3.94141 20.0596C3.68039 19.7986 3.53854 19.5021 3.50684 19.1523L3.5 18.999V5C3.5 4.63568 3.60928 4.32705 3.83691 4.05566L3.94141 3.94141C4.20313 3.68025 4.49936 3.53859 4.84766 3.50684L5.00098 3.5H19ZM14.25 11.8252C13.9665 11.8252 13.7159 11.9332 13.5273 12.1338L13.4502 12.2246L13.4492 12.2256L11.25 15.1641L9.80078 13.2256L9.7998 13.2246L9.72266 13.1338C9.53409 12.9332 9.28354 12.8252 9 12.8252C8.71646 12.8252 8.46591 12.9332 8.27734 13.1338L8.2002 13.2246L8.19922 13.2256L6.19922 15.9004H6.2002C6.09077 16.041 6.00905 16.2116 5.99023 16.4092C5.9757 16.5623 6.00065 16.7067 6.05176 16.8379L6.11133 16.9648C6.1953 17.1186 6.31416 17.2581 6.47656 17.3574C6.64043 17.4576 6.82095 17.5 7 17.5H17C17.179 17.5 17.3596 17.4576 17.5234 17.3574C17.6453 17.2829 17.7429 17.186 17.8193 17.0771L17.8887 16.9648C17.9773 16.8024 18.0291 16.6134 18.0098 16.4092C17.9909 16.2114 17.9084 16.0411 17.7988 15.9004H17.8008L15.0508 12.2256L15.0498 12.2246L14.9727 12.1338C14.7841 11.9332 14.5335 11.8252 14.25 11.8252Z" stroke="black"/>
</svg>
