<svg width="24" height="24" viewBox="0 0 24 24" fill="none" xmlns="http://www.w3.org/2000/svg">
<path d="M22 11.4387C22 16.0992 17.5225 19.8773 12 19.8773C11.0095 19.8794 10.0231 19.7554 9.06625 19.5084C8.33625 19.8653 6.66 20.55 3.84 20.996C3.59 21.0346 3.4 20.7839 3.49875 20.5596C3.94125 19.5518 4.34125 18.2089 4.46125 16.9841C2.93 15.5013 2 13.5604 2 11.4387C2 6.77811 6.4775 3 12 3C17.5225 3 22 6.77811 22 11.4387ZM8.25 11.4387C8.25 11.1189 8.1183 10.8123 7.88388 10.5862C7.64946 10.3601 7.33152 10.2331 7 10.2331C6.66848 10.2331 6.35054 10.3601 6.11612 10.5862C5.8817 10.8123 5.75 11.1189 5.75 11.4387C5.75 11.7584 5.8817 12.065 6.11612 12.2911C6.35054 12.5172 6.66848 12.6442 7 12.6442C7.33152 12.6442 7.64946 12.5172 7.88388 12.2911C8.1183 12.065 8.25 11.7584 8.25 11.4387ZM13.25 11.4387C13.25 11.1189 13.1183 10.8123 12.8839 10.5862C12.6495 10.3601 12.3315 10.2331 12 10.2331C11.6685 10.2331 11.3505 10.3601 11.1161 10.5862C10.8817 10.8123 10.75 11.1189 10.75 11.4387C10.75 11.7584 10.8817 12.065 11.1161 12.2911C11.3505 12.5172 11.6685 12.6442 12 12.6442C12.3315 12.6442 12.6495 12.5172 12.8839 12.2911C13.1183 12.065 13.25 11.7584 13.25 11.4387ZM17 12.6442C17.3315 12.6442 17.6495 12.5172 17.8839 12.2911C18.1183 12.065 18.25 11.7584 18.25 11.4387C18.25 11.1189 18.1183 10.8123 17.8839 10.5862C17.6495 10.3601 17.3315 10.2331 17 10.2331C16.6685 10.2331 16.3505 10.3601 16.1161 10.5862C15.8817 10.8123 15.75 11.1189 15.75 11.4387C15.75 11.7584 15.8817 12.065 16.1161 12.2911C16.3505 12.5172 16.6685 12.6442 17 12.6442Z" fill="black"/>
</svg>
