<svg width="24" height="24" viewBox="0 0 24 24" fill="none" xmlns="http://www.w3.org/2000/svg">
<path d="M3 19.8286V10.0571C3 9.71333 3.07987 9.38762 3.23962 9.08C3.39937 8.77238 3.6195 8.51905 3.9 8.32L10.65 3.43429C11.0437 3.14476 11.4937 3 12 3C12.5062 3 12.9562 3.14476 13.35 3.43429L20.1 8.32C20.3812 8.51905 20.6017 8.77238 20.7615 9.08C20.9212 9.38762 21.0007 9.71333 21 10.0571V19.8286C21 20.4257 20.7795 20.9371 20.3385 21.3627C19.8975 21.7883 19.368 22.0007 18.75 22H15.375C15.0562 22 14.7892 21.8958 14.574 21.6873C14.3587 21.4789 14.2507 21.2212 14.25 20.9143V15.4857C14.25 15.1781 14.142 14.9204 13.926 14.7127C13.71 14.5049 13.443 14.4007 13.125 14.4H10.875C10.5562 14.4 10.2892 14.5042 10.074 14.7127C9.85875 14.9211 9.75075 15.1788 9.75 15.4857V20.9143C9.75 21.2219 9.642 21.4799 9.426 21.6884C9.21 21.8969 8.943 22.0007 8.625 22H5.25C4.63125 22 4.10175 21.7876 3.6615 21.3627C3.22125 20.9378 3.00075 20.4264 3 19.8286Z" fill="black"/>
</svg>
