<svg width="24" height="24" viewBox="0 0 24 24" fill="none" xmlns="http://www.w3.org/2000/svg">
<path d="M12.1684 2C17.2321 2 21.3368 6.1047 21.3368 11.1684C21.3377 12.5918 21.0067 13.9958 20.3703 15.269C19.7339 16.5422 18.8094 17.6496 17.6704 18.5032H19.5032C19.7463 18.5032 19.9795 18.5998 20.1515 18.7717C20.3234 18.9436 20.42 19.1768 20.42 19.42C20.42 19.6632 20.3234 19.8964 20.1515 20.0683C19.9795 20.2403 19.7463 20.3368 19.5032 20.3368H12.1684C7.1047 20.3368 3 16.2321 3 11.1684C3 6.1047 7.1047 2 12.1684 2ZM12.1684 13.0021C11.6821 13.0021 11.2157 13.1953 10.8718 13.5392C10.5279 13.8831 10.3347 14.3495 10.3347 14.8358C10.3347 15.3221 10.5279 15.7885 10.8718 16.1324C11.2157 16.4763 11.6821 16.6695 12.1684 16.6695C12.6547 16.6695 13.1212 16.4763 13.465 16.1324C13.8089 15.7885 14.0021 15.3221 14.0021 14.8358C14.0021 14.3495 13.8089 13.8831 13.465 13.5392C13.1212 13.1953 12.6547 13.0021 12.1684 13.0021ZM8.50105 9.33474C8.01473 9.33474 7.54833 9.52793 7.20444 9.87181C6.86056 10.2157 6.66737 10.6821 6.66737 11.1684C6.66737 11.6547 6.86056 12.1212 7.20444 12.465C7.54833 12.8089 8.01473 13.0021 8.50105 13.0021C8.98738 13.0021 9.45378 12.8089 9.79767 12.465C10.1415 12.1212 10.3347 11.6547 10.3347 11.1684C10.3347 10.6821 10.1415 10.2157 9.79767 9.87181C9.45378 9.52793 8.98738 9.33474 8.50105 9.33474ZM15.8358 9.33474C15.3495 9.33474 14.8831 9.52793 14.5392 9.87181C14.1953 10.2157 14.0021 10.6821 14.0021 11.1684C14.0021 11.6547 14.1953 12.1212 14.5392 12.465C14.8831 12.8089 15.3495 13.0021 15.8358 13.0021C16.3221 13.0021 16.7885 12.8089 17.1324 12.465C17.4763 12.1212 17.6695 11.6547 17.6695 11.1684C17.6695 10.6821 17.4763 10.2157 17.1324 9.87181C16.7885 9.52793 16.3221 9.33474 15.8358 9.33474ZM12.1684 5.66737C11.6821 5.66737 11.2157 5.86056 10.8718 6.20444C10.5279 6.54833 10.3347 7.01473 10.3347 7.50105C10.3347 7.98738 10.5279 8.45378 10.8718 8.79767C11.2157 9.14155 11.6821 9.33474 12.1684 9.33474C12.6547 9.33474 13.1212 9.14155 13.465 8.79767C13.8089 8.45378 14.0021 7.98738 14.0021 7.50105C14.0021 7.01473 13.8089 6.54833 13.465 6.20444C13.1212 5.86056 12.6547 5.66737 12.1684 5.66737Z" fill="black"/>
</svg>
