<svg width="24" height="24" viewBox="0 0 24 24" fill="none" xmlns="http://www.w3.org/2000/svg">
<path d="M20.9927 7.59408C20.9927 7.04056 20.946 6.4893 20.8138 5.9504C20.5765 4.96881 20.0168 4.21898 19.1792 3.66827C18.7484 3.38701 18.2742 3.21432 17.7702 3.12319C17.3832 3.05558 16.9914 3.01834 16.5986 3.01181C16.5693 3.009 16.5373 3.00281 16.5046 3H7.48748C7.37311 3.00863 7.25893 3.01538 7.14493 3.02025C6.58526 3.05231 6.02897 3.11082 5.50136 3.32176C4.49958 3.71721 3.77566 4.40854 3.3538 5.40476C3.20756 5.74171 3.13387 6.09891 3.08156 6.4623C3.03769 6.75537 3.01406 7.05125 3.00562 7.34714C3.00562 7.37076 3 7.39382 3 7.41745V16.5848L3.01744 16.9015C3.05569 17.5141 3.13443 18.1205 3.39261 18.683C3.87916 19.7467 4.69645 20.4465 5.8186 20.7834C6.1319 20.8802 6.46039 20.9241 6.78832 20.9533C7.20456 20.9944 7.62023 21 8.03647 21H16.3095C16.7021 20.9993 17.0947 20.9739 17.4873 20.9241C18.1055 20.8447 18.6854 20.6631 19.2102 20.3177C19.8314 19.9152 20.3212 19.3397 20.6192 18.6622C20.7598 18.3455 20.8391 18.0091 20.8976 17.6688C20.9826 17.1619 21 16.6489 21 16.1365C20.9972 13.2884 21 10.441 20.9972 7.59296L20.9927 7.59408ZM16.1761 10.585V14.8686C16.1761 15.1819 16.1323 15.4896 15.9917 15.7736C15.7751 16.2158 15.4235 16.4942 14.9516 16.6292C14.6902 16.7044 14.4207 16.7476 14.149 16.7581C13.8072 16.7783 13.47 16.6721 13.2015 16.4598C12.933 16.2474 12.7519 15.9438 12.6927 15.6066C12.6383 15.3032 12.6851 14.9903 12.8258 14.7161C12.9666 14.4419 13.1935 14.2215 13.4717 14.0889C13.7119 13.9719 13.9729 13.9016 14.2333 13.8487C14.5174 13.7874 14.8014 13.7317 15.0827 13.667C15.2908 13.6203 15.4252 13.4943 15.4663 13.28C15.4781 13.2333 15.4809 13.1833 15.4809 13.1366V9.05269C15.4799 9.00609 15.4731 8.95979 15.4607 8.91487C15.4314 8.80068 15.3493 8.73318 15.2323 8.7388C15.1119 8.74443 14.9949 8.76524 14.8779 8.78887C14.3061 8.90025 13.7357 9.01444 13.1669 9.13144L10.3927 9.69115C10.3809 9.69396 10.3663 9.70015 10.3545 9.70015C10.1463 9.75865 10.0732 9.85259 10.0642 10.0692C10.0614 10.1012 10.0642 10.1338 10.0642 10.1659C10.0614 12.1173 10.0642 14.0687 10.0614 16.0195C10.0614 16.3362 10.026 16.6467 9.90053 16.9392C9.69242 17.4196 9.32343 17.7216 8.82563 17.8651C8.5625 17.9418 8.29074 17.9851 8.01678 17.9939C7.29905 18.0203 6.70113 17.5428 6.57851 16.8368C6.47277 16.2276 6.7512 15.5711 7.44249 15.2781C7.71192 15.1667 7.99034 15.1054 8.2744 15.0469L8.919 14.9152C9.20587 14.8539 9.35549 14.6722 9.37011 14.3792V7.60533C9.37086 7.5112 9.38155 7.41839 9.40217 7.32689C9.45505 7.11313 9.60748 6.98994 9.81222 6.93987C10.0029 6.88981 10.1992 6.85493 10.3921 6.81387C10.9428 6.70249 11.4907 6.59111 12.0413 6.48255L13.7434 6.1366C14.2474 6.03703 14.748 5.93465 15.252 5.83509C15.4162 5.80303 15.5833 5.76759 15.7498 5.75577C15.981 5.73552 16.1424 5.88178 16.166 6.11635C16.1717 6.17222 16.1747 6.22791 16.175 6.28342V10.5816L16.1761 10.585Z" fill="black"/>
</svg>
